<svg width="512" height="512" viewBox="0 0 512 512" fill="none" xmlns="http://www.w3.org/2000/svg">
  <path d="M440.32 256C440.32 154.203 357.797 71.6802 256 71.6802C154.203 71.6802 71.68 154.203 71.68 256C71.68 357.797 154.203 440.32 256 440.32C357.797 440.32 440.32 357.797 440.32 256ZM481.28 256C481.28 380.419 380.419 481.28 256 481.28C131.581 481.28 30.72 380.419 30.72 256C30.72 131.582 131.581 30.7202 256 30.7202C380.419 30.7202 481.28 131.582 481.28 256Z" fill="#4FC3F7"/>
  <path d="M435.2 317.44C469.132 317.44 496.64 289.933 496.64 256C496.64 222.068 469.132 194.56 435.2 194.56C401.268 194.56 373.76 222.068 373.76 256C373.76 289.933 401.268 317.44 435.2 317.44Z" fill="#4FC3F7"/>
</svg>
